<?xml version="1.0" encoding="UTF-8"?>
<svg id="Layer_1" xmlns="http://www.w3.org/2000/svg" version="1.1" viewBox="0 0 201.8 201.9">
  <!-- Generator: Adobe Illustrator 29.1.0, SVG Export Plug-In . SVG Version: 2.1.0 Build 142)  -->
  <defs>
    <style>
      .st0 {
        fill: none;
      }

      .st1 {
        fill: #fff;
      }

      .st2 {
        display: none;
      }
    </style>
  </defs>
  <circle class="st1" cx="100.9" cy="100.8" r="100.9"/>
  <g id="artwork" class="st2">
    <line class="st0" y1="0" y2="202.2"/>
    <polygon class="st1" points="0 0 0 201.9 86.5 201.9 86.5 173.1 28.8 173.1 28.8 28.9 201.8 28.9 201.8 0 0 0"/>
    <polygon class="st1" points="57.7 57.8 57.7 144.2 173 144.2 173 173.1 115.3 173.1 115.3 201.9 201.8 201.9 201.8 115.4 86.5 115.4 86.5 86.6 201.8 86.6 201.8 57.8 57.7 57.8"/>
  </g>
  <g id="Layer_2">
    <g>
      <line x1="32.2" y1="32.2" x2="32.2" y2="169.7"/>
      <rect x="76.9" y="71.4" width="92.7" height="19.6"/>
      <polygon points="150 110.7 114.7 110.7 76.9 110.7 76.9 130.3 114.7 130.3 138 130.3 150 130.3 150 169.7 169.6 169.7 169.6 130.3 169.6 110.7 150 110.7"/>
      <polygon points="32.2 32.2 32.2 169.5 91.1 169.5 91.1 149.9 51.8 149.9 51.8 51.8 169.6 51.8 169.6 32.2 32.2 32.2"/>
    </g>
  </g>
</svg>